<svg width="287" height="37" viewBox="0 0 287 37" fill="none" xmlns="http://www.w3.org/2000/svg">
<path d="M15.5 0.499998C17.6333 0.499998 19.5833 0.816665 21.35 1.45C23.15 2.05 24.7 2.83333 26 3.8C27.3 4.76667 28.3167 5.83333 29.05 7C29.7833 8.16667 30.1667 9.28333 30.2 10.35C30.2 10.65 30.0833 10.9167 29.85 11.15C29.65 11.35 29.4167 11.45 29.15 11.45H22.6C22.1333 11.45 21.75 11.3833 21.45 11.25C21.1833 11.1167 20.9 10.9167 20.6 10.65C20.5 10.55 20.3333 10.3833 20.1 10.15C19.9 9.91666 19.6 9.68333 19.2 9.45C18.8 9.18333 18.3 8.96667 17.7 8.8C17.1 8.6 16.3667 8.5 15.5 8.5C14.8667 8.5 14.25 8.55 13.65 8.65C13.0833 8.71667 12.5667 8.85 12.1 9.05C11.6667 9.21666 11.3 9.46666 11 9.8C10.7333 10.1333 10.6 10.55 10.6 11.05C10.6 11.55 10.75 11.9667 11.05 12.3C11.3833 12.6333 11.9167 12.95 12.65 13.25C13.4167 13.5167 14.4167 13.7833 15.65 14.05C16.8833 14.3167 18.4167 14.6333 20.25 15C22.0833 15.3667 23.6833 15.8333 25.05 16.4C26.4167 16.9667 27.55 17.6833 28.45 18.55C29.3833 19.3833 30.0667 20.3833 30.5 21.55C30.9667 22.6833 31.2 24.0333 31.2 25.6C31.2 27.3 30.8167 28.8167 30.05 30.15C29.2833 31.4833 28.2 32.6333 26.8 33.6C25.4333 34.5333 23.8 35.25 21.9 35.75C20.0333 36.25 17.9833 36.5 15.75 36.5C13.4833 36.5 11.4167 36.2 9.55 35.6C7.68333 35 6.06667 34.2167 4.7 33.25C3.36667 32.25 2.31667 31.1333 1.55 29.9C0.783333 28.6667 0.383333 27.4167 0.35 26.15C0.35 25.85 0.45 25.6 0.65 25.4C0.883333 25.1667 1.13333 25.05 1.4 25.05H7.95C8.41667 25.05 8.78333 25.1167 9.05 25.25C9.31667 25.35 9.58333 25.5167 9.85 25.75C9.98333 25.8833 10.1833 26.1 10.45 26.4C10.7167 26.7 11.0667 27.0167 11.5 27.35C11.9667 27.65 12.5333 27.9167 13.2 28.15C13.9 28.3833 14.75 28.5 15.75 28.5C17.5167 28.5 18.9833 28.3167 20.15 27.95C21.35 27.55 21.95 26.85 21.95 25.85C21.95 25.35 21.7333 24.9333 21.3 24.6C20.8667 24.2667 20.2167 23.9667 19.35 23.7C18.4833 23.4 17.3667 23.1167 16 22.85C14.6667 22.5833 13.0833 22.25 11.25 21.85C7.81667 21.1167 5.3 19.9 3.7 18.2C2.13333 16.4667 1.35 14.1667 1.35 11.3C1.35 9.86667 1.66667 8.5 2.3 7.2C2.96667 5.9 3.91667 4.75 5.15 3.75C6.38333 2.75 7.86667 1.96667 9.6 1.4C11.3667 0.799998 13.3333 0.499998 15.5 0.499998ZM54.1055 0.999998C54.7721 0.999998 55.2721 1.18333 55.6055 1.55C55.9721 1.91667 56.2221 2.28333 56.3555 2.65L67.2555 34.15C67.3888 34.4833 67.4555 34.7333 67.4555 34.9C67.4555 35.2 67.3388 35.4667 67.1055 35.7C66.9055 35.9 66.6555 36 66.3555 36H60.0555C59.3888 36 58.9055 35.8667 58.6055 35.6C58.3388 35.3 58.1721 35.0167 58.1055 34.75L56.7055 30.6H43.4055L42.0055 34.75C41.9388 35.0167 41.7555 35.3 41.4555 35.6C41.1888 35.8667 40.7221 36 40.0555 36H33.7555C33.4555 36 33.1888 35.9 32.9555 35.7C32.7555 35.4667 32.6555 35.2 32.6555 34.9C32.6555 34.7333 32.7221 34.4833 32.8555 34.15L43.7555 2.65C43.8888 2.28333 44.1221 1.91667 44.4555 1.55C44.8221 1.18333 45.3388 0.999998 46.0055 0.999998H54.1055ZM46.0055 22.85H54.1055L50.0555 10.85L46.0055 22.85ZM79.5063 36C78.2063 36 77.3229 35.3333 76.8563 34L66.6563 2.75C66.5896 2.51666 66.5396 2.36666 66.5063 2.3C66.5063 2.23333 66.5063 2.16666 66.5063 2.1C66.5063 1.8 66.6063 1.55 66.8063 1.35C67.0396 1.11666 67.3063 0.999998 67.6063 0.999998H73.9063C74.5729 0.999998 75.0396 1.15 75.3063 1.45C75.6063 1.71666 75.7896 1.98333 75.8563 2.25L82.8063 24.25L89.7563 2.25C89.8229 1.98333 89.9896 1.71666 90.2563 1.45C90.5563 1.15 91.0396 0.999998 91.7063 0.999998H98.0063C98.3063 0.999998 98.5563 1.11666 98.7563 1.35C98.9896 1.55 99.1063 1.8 99.1063 2.1C99.1063 2.16666 99.0896 2.23333 99.0563 2.3C99.0563 2.36666 99.0229 2.51666 98.9563 2.75L88.7563 34C88.2896 35.3333 87.4063 36 86.1063 36H79.5063ZM128.771 28C129.137 28 129.454 28.1333 129.721 28.4C129.987 28.6667 130.121 28.9833 130.121 29.35V34.65C130.121 35.0167 129.987 35.3333 129.721 35.6C129.454 35.8667 129.137 36 128.771 36H105.071C104.704 36 104.387 35.8667 104.121 35.6C103.854 35.3333 103.721 35.0167 103.721 34.65V2.35C103.721 1.98333 103.854 1.66667 104.121 1.4C104.387 1.13333 104.704 0.999998 105.071 0.999998H128.371C128.737 0.999998 129.054 1.13333 129.321 1.4C129.587 1.66667 129.721 1.98333 129.721 2.35V7.65C129.721 8.01666 129.587 8.33333 129.321 8.6C129.054 8.86667 128.737 9 128.371 9H112.971V14.4H127.271C127.637 14.4 127.954 14.5333 128.221 14.8C128.487 15.0667 128.621 15.3833 128.621 15.75V21.05C128.621 21.4167 128.487 21.7333 128.221 22C127.954 22.2667 127.637 22.4 127.271 22.4H112.971V28H128.771ZM163.676 0.999998C164.342 0.999998 164.842 1.18333 165.176 1.55C165.542 1.91667 165.792 2.28333 165.926 2.65L176.826 34.15C176.959 34.4833 177.026 34.7333 177.026 34.9C177.026 35.2 176.909 35.4667 176.676 35.7C176.476 35.9 176.226 36 175.926 36H169.626C168.959 36 168.476 35.8667 168.176 35.6C167.909 35.3 167.742 35.0167 167.676 34.75L166.276 30.6H152.976L151.576 34.75C151.509 35.0167 151.326 35.3 151.026 35.6C150.759 35.8667 150.292 36 149.626 36H143.326C143.026 36 142.759 35.9 142.526 35.7C142.326 35.4667 142.226 35.2 142.226 34.9C142.226 34.7333 142.292 34.4833 142.426 34.15L153.326 2.65C153.459 2.28333 153.692 1.91667 154.026 1.55C154.392 1.18333 154.909 0.999998 155.576 0.999998H163.676ZM155.576 22.85H163.676L159.626 10.85L155.576 22.85Z" fill="#0B132A"/>
<path d="M214.591 0.999998C214.957 0.999998 215.274 1.13333 215.541 1.4C215.807 1.66667 215.941 1.98333 215.941 2.35V7.65C215.941 8.01666 215.807 8.33333 215.541 8.6C215.274 8.86667 214.957 9 214.591 9H199.641V15.85H213.591C213.957 15.85 214.274 15.9833 214.541 16.25C214.807 16.5167 214.941 16.8333 214.941 17.2V22.5C214.941 22.8667 214.807 23.1833 214.541 23.45C214.274 23.7167 213.957 23.85 213.591 23.85H199.641V34.65C199.641 35.0167 199.507 35.3333 199.241 35.6C198.974 35.8667 198.657 36 198.291 36H191.741C191.374 36 191.057 35.8667 190.791 35.6C190.524 35.3333 190.391 35.0167 190.391 34.65V2.35C190.391 1.98333 190.524 1.66667 190.791 1.4C191.057 1.13333 191.374 0.999998 191.741 0.999998H214.591ZM219.758 14.05C219.858 12.1833 220.258 10.4333 220.958 8.8C221.692 7.13333 222.708 5.7 224.008 4.5C225.342 3.26666 226.942 2.3 228.808 1.6C230.708 0.866665 232.892 0.499998 235.358 0.499998C237.792 0.499998 239.958 0.866665 241.858 1.6C243.758 2.3 245.358 3.26666 246.658 4.5C247.992 5.7 249.008 7.13333 249.708 8.8C250.442 10.4333 250.858 12.1833 250.958 14.05C251.025 15.4833 251.058 16.9833 251.058 18.55C251.058 20.1167 251.025 21.5833 250.958 22.95C250.858 24.8167 250.442 26.5833 249.708 28.25C249.008 29.8833 247.992 31.3167 246.658 32.55C245.358 33.7833 243.758 34.75 241.858 35.45C239.958 36.15 237.792 36.5 235.358 36.5C232.892 36.5 230.708 36.15 228.808 35.45C226.942 34.75 225.342 33.7833 224.008 32.55C222.708 31.3167 221.692 29.8833 220.958 28.25C220.258 26.5833 219.858 24.8167 219.758 22.95C219.692 21.5833 219.658 20.1167 219.658 18.55C219.658 16.9833 219.692 15.4833 219.758 14.05ZM241.708 22.7C241.742 22.1 241.775 21.4333 241.808 20.7C241.842 19.9667 241.858 19.2167 241.858 18.45C241.858 17.6833 241.842 16.95 241.808 16.25C241.775 15.5167 241.742 14.8667 241.708 14.3C241.642 13.4667 241.458 12.7 241.158 12C240.892 11.3 240.492 10.7 239.958 10.2C239.458 9.66667 238.825 9.25 238.058 8.95C237.292 8.65 236.392 8.5 235.358 8.5C234.325 8.5 233.425 8.65 232.658 8.95C231.892 9.25 231.242 9.66667 230.708 10.2C230.208 10.7 229.808 11.3 229.508 12C229.242 12.7 229.075 13.4667 229.008 14.3C228.942 14.8667 228.892 15.5167 228.858 16.25C228.858 16.95 228.858 17.6833 228.858 18.45C228.858 19.2167 228.858 19.9667 228.858 20.7C228.892 21.4333 228.942 22.1 229.008 22.7C229.142 24.3667 229.708 25.75 230.708 26.85C231.742 27.95 233.292 28.5 235.358 28.5C237.425 28.5 238.958 27.95 239.958 26.85C240.958 25.75 241.542 24.3667 241.708 22.7ZM269.19 25.85L262.79 34.85C262.59 35.15 262.357 35.4167 262.09 35.65C261.857 35.8833 261.407 36 260.74 36H253.14C252.84 36 252.574 35.9 252.34 35.7C252.14 35.4667 252.04 35.2 252.04 34.9C252.04 34.8333 252.04 34.7667 252.04 34.7C252.074 34.6 252.124 34.4833 252.19 34.35L263.74 18.2L252.69 2.65C252.59 2.45 252.54 2.26666 252.54 2.1C252.54 1.8 252.64 1.55 252.84 1.35C253.074 1.11666 253.34 0.999998 253.64 0.999998H261.19C261.857 0.999998 262.34 1.16666 262.64 1.5C262.94 1.83333 263.157 2.08333 263.29 2.25L269.34 10.7L275.19 2.25C275.324 2.08333 275.54 1.83333 275.84 1.5C276.14 1.16666 276.624 0.999998 277.29 0.999998H284.94C285.24 0.999998 285.49 1.11666 285.69 1.35C285.924 1.55 286.04 1.8 286.04 2.1C286.04 2.26666 285.99 2.45 285.89 2.65L274.79 18.4L286.24 34.35C286.307 34.4833 286.34 34.6 286.34 34.7C286.374 34.7667 286.39 34.8333 286.39 34.9C286.39 35.2 286.274 35.4667 286.04 35.7C285.84 35.9 285.59 36 285.29 36H277.69C277.024 36 276.557 35.8833 276.29 35.65C276.057 35.4167 275.84 35.15 275.64 34.85L269.19 25.85Z" fill="#F59E0B"/>
</svg>
