<svg width="173" height="23" viewBox="0 0 173 23" fill="none" xmlns="http://www.w3.org/2000/svg">
<path d="M9.9 0.699999C11.18 0.699999 12.35 0.889999 13.41 1.27C14.49 1.63 15.42 2.1 16.2 2.68C16.98 3.26 17.59 3.9 18.03 4.6C18.47 5.3 18.7 5.97 18.72 6.61C18.72 6.79 18.65 6.95 18.51 7.09C18.39 7.21 18.25 7.27 18.09 7.27H14.16C13.88 7.27 13.65 7.23 13.47 7.15C13.31 7.07 13.14 6.95 12.96 6.79C12.9 6.73 12.8 6.63 12.66 6.49C12.54 6.35 12.36 6.21 12.12 6.07C11.88 5.91 11.58 5.78 11.22 5.68C10.86 5.56 10.42 5.5 9.9 5.5C9.52 5.5 9.15 5.53 8.79 5.59C8.45 5.63 8.14 5.71 7.86 5.83C7.6 5.93 7.38 6.08 7.2 6.28C7.04 6.48 6.96 6.73 6.96 7.03C6.96 7.33 7.05 7.58 7.23 7.78C7.43 7.98 7.75 8.17 8.19 8.35C8.65 8.51 9.25 8.67 9.99 8.83C10.73 8.99 11.65 9.18 12.75 9.4C13.85 9.62 14.81 9.9 15.63 10.24C16.45 10.58 17.13 11.01 17.67 11.53C18.23 12.03 18.64 12.63 18.9 13.33C19.18 14.01 19.32 14.82 19.32 15.76C19.32 16.78 19.09 17.69 18.63 18.49C18.17 19.29 17.52 19.98 16.68 20.56C15.86 21.12 14.88 21.55 13.74 21.85C12.62 22.15 11.39 22.3 10.05 22.3C8.69 22.3 7.45 22.12 6.33 21.76C5.21 21.4 4.24 20.93 3.42 20.35C2.62 19.75 1.99 19.08 1.53 18.34C1.07 17.6 0.83 16.85 0.81 16.09C0.81 15.91 0.87 15.76 0.99 15.64C1.13 15.5 1.28 15.43 1.44 15.43H5.37C5.65 15.43 5.87 15.47 6.03 15.55C6.19 15.61 6.35 15.71 6.51 15.85C6.59 15.93 6.71 16.06 6.87 16.24C7.03 16.42 7.24 16.61 7.5 16.81C7.78 16.99 8.12 17.15 8.52 17.29C8.94 17.43 9.45 17.5 10.05 17.5C11.11 17.5 11.99 17.39 12.69 17.17C13.41 16.93 13.77 16.51 13.77 15.91C13.77 15.61 13.64 15.36 13.38 15.16C13.12 14.96 12.73 14.78 12.21 14.62C11.69 14.44 11.02 14.27 10.2 14.11C9.4 13.95 8.45 13.75 7.35 13.51C5.29 13.07 3.78 12.34 2.82 11.32C1.88 10.28 1.41 8.9 1.41 7.18C1.41 6.32 1.6 5.5 1.98 4.72C2.38 3.94 2.95 3.25 3.69 2.65C4.43 2.05 5.32 1.58 6.36 1.24C7.42 0.879999 8.6 0.699999 9.9 0.699999ZM33.0633 0.999999C33.4633 0.999999 33.7633 1.11 33.9633 1.33C34.1833 1.55 34.3333 1.77 34.4133 1.99L40.9533 20.89C41.0333 21.09 41.0733 21.24 41.0733 21.34C41.0733 21.52 41.0033 21.68 40.8633 21.82C40.7433 21.94 40.5933 22 40.4133 22H36.6333C36.2333 22 35.9433 21.92 35.7633 21.76C35.6033 21.58 35.5033 21.41 35.4633 21.25L34.6233 18.76H26.6433L25.8033 21.25C25.7633 21.41 25.6533 21.58 25.4733 21.76C25.3133 21.92 25.0333 22 24.6333 22H20.8533C20.6733 22 20.5133 21.94 20.3733 21.82C20.2533 21.68 20.1933 21.52 20.1933 21.34C20.1933 21.24 20.2333 21.09 20.3133 20.89L26.8533 1.99C26.9333 1.77 27.0733 1.55 27.2733 1.33C27.4933 1.11 27.8033 0.999999 28.2033 0.999999H33.0633ZM28.2033 14.11H33.0633L30.6333 6.91L28.2033 14.11ZM48.3038 22C47.5238 22 46.9938 21.6 46.7138 20.8L40.5938 2.05C40.5538 1.91 40.5238 1.82 40.5038 1.78C40.5038 1.74 40.5038 1.7 40.5038 1.66C40.5038 1.48 40.5638 1.33 40.6838 1.21C40.8238 1.07 40.9838 0.999999 41.1638 0.999999H44.9438C45.3438 0.999999 45.6238 1.09 45.7838 1.27C45.9638 1.43 46.0738 1.59 46.1138 1.75L50.2838 14.95L54.4538 1.75C54.4938 1.59 54.5938 1.43 54.7538 1.27C54.9338 1.09 55.2238 0.999999 55.6238 0.999999H59.4038C59.5838 0.999999 59.7338 1.07 59.8538 1.21C59.9938 1.33 60.0638 1.48 60.0638 1.66C60.0638 1.7 60.0538 1.74 60.0338 1.78C60.0338 1.82 60.0138 1.91 59.9738 2.05L53.8538 20.8C53.5738 21.6 53.0438 22 52.2638 22H48.3038ZM77.8624 17.2C78.0824 17.2 78.2724 17.28 78.4324 17.44C78.5924 17.6 78.6724 17.79 78.6724 18.01V21.19C78.6724 21.41 78.5924 21.6 78.4324 21.76C78.2724 21.92 78.0824 22 77.8624 22H63.6424C63.4224 22 63.2324 21.92 63.0724 21.76C62.9124 21.6 62.8324 21.41 62.8324 21.19V1.81C62.8324 1.59 62.9124 1.4 63.0724 1.24C63.2324 1.08 63.4224 0.999999 63.6424 0.999999H77.6224C77.8424 0.999999 78.0324 1.08 78.1924 1.24C78.3524 1.4 78.4324 1.59 78.4324 1.81V4.99C78.4324 5.21 78.3524 5.4 78.1924 5.56C78.0324 5.72 77.8424 5.8 77.6224 5.8H68.3824V9.04H76.9624C77.1824 9.04 77.3724 9.12 77.5324 9.28C77.6924 9.44 77.7724 9.63 77.7724 9.85V13.03C77.7724 13.25 77.6924 13.44 77.5324 13.6C77.3724 13.76 77.1824 13.84 76.9624 13.84H68.3824V17.2H77.8624ZM98.8055 0.999999C99.2055 0.999999 99.5055 1.11 99.7055 1.33C99.9255 1.55 100.075 1.77 100.155 1.99L106.695 20.89C106.775 21.09 106.815 21.24 106.815 21.34C106.815 21.52 106.745 21.68 106.605 21.82C106.485 21.94 106.335 22 106.155 22H102.375C101.975 22 101.685 21.92 101.505 21.76C101.345 21.58 101.245 21.41 101.205 21.25L100.365 18.76H92.3855L91.5455 21.25C91.5055 21.41 91.3955 21.58 91.2155 21.76C91.0555 21.92 90.7755 22 90.3755 22H86.5955C86.4155 22 86.2555 21.94 86.1155 21.82C85.9955 21.68 85.9355 21.52 85.9355 21.34C85.9355 21.24 85.9755 21.09 86.0555 20.89L92.5955 1.99C92.6755 1.77 92.8155 1.55 93.0155 1.33C93.2355 1.11 93.5455 0.999999 93.9455 0.999999H98.8055ZM93.9455 14.11H98.8055L96.3755 6.91L93.9455 14.11Z" fill="white"/>
<path d="M129.354 0.999999C129.574 0.999999 129.764 1.08 129.924 1.24C130.084 1.4 130.164 1.59 130.164 1.81V4.99C130.164 5.21 130.084 5.4 129.924 5.56C129.764 5.72 129.574 5.8 129.354 5.8H120.384V9.91H128.754C128.974 9.91 129.164 9.99 129.324 10.15C129.484 10.31 129.564 10.5 129.564 10.72V13.9C129.564 14.12 129.484 14.31 129.324 14.47C129.164 14.63 128.974 14.71 128.754 14.71H120.384V21.19C120.384 21.41 120.304 21.6 120.144 21.76C119.984 21.92 119.794 22 119.574 22H115.644C115.424 22 115.234 21.92 115.074 21.76C114.914 21.6 114.834 21.41 114.834 21.19V1.81C114.834 1.59 114.914 1.4 115.074 1.24C115.234 1.08 115.424 0.999999 115.644 0.999999H129.354ZM132.455 8.83C132.515 7.71 132.755 6.66 133.175 5.68C133.615 4.68 134.225 3.82 135.005 3.1C135.805 2.36 136.765 1.78 137.885 1.36C139.025 0.919999 140.335 0.699999 141.815 0.699999C143.275 0.699999 144.575 0.919999 145.715 1.36C146.855 1.78 147.815 2.36 148.595 3.1C149.395 3.82 150.005 4.68 150.425 5.68C150.865 6.66 151.115 7.71 151.175 8.83C151.215 9.69 151.235 10.59 151.235 11.53C151.235 12.47 151.215 13.35 151.175 14.17C151.115 15.29 150.865 16.35 150.425 17.35C150.005 18.33 149.395 19.19 148.595 19.93C147.815 20.67 146.855 21.25 145.715 21.67C144.575 22.09 143.275 22.3 141.815 22.3C140.335 22.3 139.025 22.09 137.885 21.67C136.765 21.25 135.805 20.67 135.005 19.93C134.225 19.19 133.615 18.33 133.175 17.35C132.755 16.35 132.515 15.29 132.455 14.17C132.415 13.35 132.395 12.47 132.395 11.53C132.395 10.59 132.415 9.69 132.455 8.83ZM145.625 14.02C145.645 13.66 145.665 13.26 145.685 12.82C145.705 12.38 145.715 11.93 145.715 11.47C145.715 11.01 145.705 10.57 145.685 10.15C145.665 9.71 145.645 9.32 145.625 8.98C145.585 8.48 145.475 8.02 145.295 7.6C145.135 7.18 144.895 6.82 144.575 6.52C144.275 6.2 143.895 5.95 143.435 5.77C142.975 5.59 142.435 5.5 141.815 5.5C141.195 5.5 140.655 5.59 140.195 5.77C139.735 5.95 139.345 6.2 139.025 6.52C138.725 6.82 138.485 7.18 138.305 7.6C138.145 8.02 138.045 8.48 138.005 8.98C137.965 9.32 137.935 9.71 137.915 10.15C137.915 10.57 137.915 11.01 137.915 11.47C137.915 11.93 137.915 12.38 137.915 12.82C137.935 13.26 137.965 13.66 138.005 14.02C138.085 15.02 138.425 15.85 139.025 16.51C139.645 17.17 140.575 17.5 141.815 17.5C143.055 17.5 143.975 17.17 144.575 16.51C145.175 15.85 145.525 15.02 145.625 14.02ZM162.114 15.91L158.274 21.31C158.154 21.49 158.014 21.65 157.854 21.79C157.714 21.93 157.444 22 157.044 22H152.484C152.304 22 152.144 21.94 152.004 21.82C151.884 21.68 151.824 21.52 151.824 21.34C151.824 21.3 151.824 21.26 151.824 21.22C151.844 21.16 151.874 21.09 151.914 21.01L158.844 11.32L152.214 1.99C152.154 1.87 152.124 1.76 152.124 1.66C152.124 1.48 152.184 1.33 152.304 1.21C152.444 1.07 152.604 0.999999 152.784 0.999999H157.314C157.714 0.999999 158.004 1.1 158.184 1.3C158.364 1.5 158.494 1.65 158.574 1.75L162.204 6.82L165.714 1.75C165.794 1.65 165.924 1.5 166.104 1.3C166.284 1.1 166.574 0.999999 166.974 0.999999H171.564C171.744 0.999999 171.894 1.07 172.014 1.21C172.154 1.33 172.224 1.48 172.224 1.66C172.224 1.76 172.194 1.87 172.134 1.99L165.474 11.44L172.344 21.01C172.384 21.09 172.404 21.16 172.404 21.22C172.424 21.26 172.434 21.3 172.434 21.34C172.434 21.52 172.364 21.68 172.224 21.82C172.104 21.94 171.954 22 171.774 22H167.214C166.814 22 166.534 21.93 166.374 21.79C166.234 21.65 166.104 21.49 165.984 21.31L162.114 15.91Z" fill="#F59E0B"/>
</svg>
