<svg width="111" height="196" viewBox="0 0 111 196" fill="none" xmlns="http://www.w3.org/2000/svg">
<path d="M73.2343 196C71.3677 196 69.6877 195.347 68.1943 194.04C66.8877 192.733 66.2343 191.053 66.2343 189V49.84L25.9143 80.92C24.2343 82.2267 22.461 82.6933 20.5943 82.32C18.9143 81.9467 17.421 80.92 16.1143 79.24L2.11432 61.04C0.994317 59.36 0.52765 57.5867 0.714317 55.72C1.08765 53.8533 2.11432 52.36 3.79432 51.24L67.6343 1.95999C68.7543 1.21333 69.781 0.74666 70.7143 0.559996C71.8343 0.186656 73.0477 -1.33514e-05 74.3543 -1.33514e-05H104.034C105.901 -1.33514e-05 107.488 0.653323 108.794 1.95999C110.101 3.26666 110.754 4.94666 110.754 7V189C110.754 191.053 110.101 192.733 108.794 194.04C107.488 195.347 105.901 196 104.034 196H73.2343Z" fill="#DDE0E4" fill-opacity="0.4"/>
</svg>
