<svg width="153" height="200" viewBox="0 0 153 200" fill="none" xmlns="http://www.w3.org/2000/svg">
<path d="M7.04 200C4.98667 200 3.30667 199.347 2 198.04C0.693334 196.733 0.0400004 195.053 0.0400004 193V176.2C0.0400004 174.707 0.413334 172.747 1.16 170.32C2.09333 167.707 4.05333 165.187 7.04 162.76L44 126.08C57.6267 115.627 68.64 106.76 77.04 99.48C85.6267 92.2 91.9733 85.5733 96.08 79.6C100.187 73.6267 102.24 67.84 102.24 62.24C102.24 54.96 100.187 48.9867 96.08 44.32C92.16 39.4667 85.72 37.04 76.76 37.04C70.7867 37.04 65.7467 38.3467 61.64 40.96C57.72 43.3867 54.64 46.6533 52.4 50.76C50.16 54.8667 48.6667 59.3467 47.92 64.2C47.36 66.6267 46.1467 68.3067 44.28 69.24C42.6 70.1733 40.8267 70.64 38.96 70.64H9.28C7.41333 70.64 5.92 70.08 4.8 68.96C3.68 67.6533 3.12 66.2533 3.12 64.76C3.30667 56.1733 5.08 48.0533 8.44 40.4C11.9867 32.7467 16.9333 25.9333 23.28 19.96C29.6267 13.9867 37.28 9.32 46.24 5.95999C55.2 2.41333 65.3733 0.639997 76.76 0.639997C92.44 0.639997 105.6 3.25333 116.24 8.48C126.88 13.52 134.907 20.52 140.32 29.48C145.733 38.44 148.44 48.8 148.44 60.56C148.44 69.52 146.573 77.8267 142.84 85.48C139.293 93.1333 134.067 100.507 127.16 107.6C120.253 114.507 112.04 121.693 102.52 129.16L69.48 162.2H145.64C147.693 162.2 149.373 162.853 150.68 164.16C151.987 165.467 152.64 167.147 152.64 169.2V193C152.64 195.053 151.987 196.733 150.68 198.04C149.373 199.347 147.693 200 145.64 200H7.04Z" fill="#DDE0E4" fill-opacity="0.4"/>
</svg>
