<svg width="160" height="199" viewBox="0 0 160 199" fill="none" xmlns="http://www.w3.org/2000/svg">
<path d="M79.772 198.8C65.9586 198.8 54.1053 197.12 44.212 193.76C34.3186 190.4 26.1986 186.107 19.852 180.88C13.5053 175.653 8.7453 169.96 5.57196 163.8C2.39863 157.453 0.718631 151.387 0.531964 145.6C0.531964 143.92 1.09196 142.52 2.21196 141.4C3.33196 140.28 4.73196 139.72 6.41196 139.72H37.212C39.2653 139.72 40.9453 140.187 42.252 141.12C43.5586 141.867 44.772 143.267 45.892 145.32C47.3853 149.613 49.812 153.067 53.172 155.68C56.532 158.293 60.452 160.16 64.932 161.28C69.5986 162.213 74.5453 162.68 79.772 162.68C90.2253 162.68 98.4386 160.253 104.412 155.4C110.385 150.547 113.372 143.733 113.372 134.96C113.372 126 110.572 119.56 104.972 115.64C99.372 111.72 91.4386 109.76 81.172 109.76H51.212C49.3453 109.76 47.7586 109.107 46.452 107.8C45.1453 106.493 44.492 104.907 44.492 103.04V89.32C44.492 87.08 44.8653 85.2133 45.612 83.72C46.5453 82.2267 47.4786 81.1067 48.412 80.36L96.572 36.12H17.612C15.5586 36.12 13.8786 35.4667 12.572 34.16C11.2653 32.8533 10.612 31.2667 10.612 29.4V7C10.612 4.94666 11.2653 3.26666 12.572 1.95999C13.8786 0.653323 15.5586 -1.33514e-05 17.612 -1.33514e-05H141.932C143.985 -1.33514e-05 145.665 0.653323 146.972 1.95999C148.279 3.26666 148.932 4.94666 148.932 7V27.16C148.932 29.2133 148.559 30.9867 147.812 32.48C147.065 33.7867 146.132 34.8133 145.012 35.56L99.372 80.64L102.172 80.92C113.185 82.04 122.985 84.7467 131.572 89.04C140.159 93.3333 146.879 99.4933 151.732 107.52C156.772 115.36 159.292 125.347 159.292 137.48C159.292 150.173 155.839 161.093 148.932 170.24C142.025 179.387 132.599 186.48 120.652 191.52C108.705 196.373 95.0786 198.8 79.772 198.8Z" fill="#DDE0E4" fill-opacity="0.4"/>
</svg>
