<svg width="170" height="196" viewBox="0 0 170 196" fill="none" xmlns="http://www.w3.org/2000/svg">
<path d="M101.76 196C99.8933 196 98.3067 195.347 97 194.04C95.6933 192.733 95.04 191.053 95.04 189V155.4H6.84C4.97333 155.4 3.38667 154.747 2.08 153.44C0.773334 152.133 0.12 150.453 0.12 148.4V125.72C0.12 124.413 0.4 123.013 0.96 121.52C1.52 120.027 2.26667 118.627 3.2 117.32L85.24 4.75999C87.6667 1.58666 91.12 -1.33514e-05 95.6 -1.33514e-05H131.16C133.027 -1.33514e-05 134.613 0.653323 135.92 1.95999C137.227 3.26666 137.88 4.94666 137.88 7V118.16H162.8C165.04 118.16 166.72 118.813 167.84 120.12C169.147 121.427 169.8 123.013 169.8 124.88V148.4C169.8 150.453 169.147 152.133 167.84 153.44C166.533 154.747 164.947 155.4 163.08 155.4H137.88V189C137.88 191.053 137.227 192.733 135.92 194.04C134.613 195.347 133.027 196 131.16 196H101.76ZM43.52 119.56H95.88V45.92L43.52 119.56Z" fill="#DDE0E4" fill-opacity="0.4"/>
</svg>
