<svg width="87" height="90" viewBox="0 0 87 90" fill="none" xmlns="http://www.w3.org/2000/svg">
<path d="M33.8267 86.5028V64.2014C33.8267 62.6425 35.4762 61.0518 37.1257 61.0518H50.3217C51.9712 61.0518 53.6207 62.6425 53.6207 64.2332V86.5028C53.6207 87.3466 53.9682 88.1558 54.5869 88.7524C55.2056 89.349 56.0447 89.6842 56.9196 89.6842H83.3115C84.1865 89.6842 85.0256 89.349 85.6443 88.7524C86.263 88.1558 86.6105 87.3466 86.6105 86.5028V41.9635C86.6113 41.5455 86.5266 41.1314 86.3613 40.7449C86.196 40.3584 85.9534 40.0071 85.6472 39.7111L76.7136 31.1023V10.1498C76.7136 9.30604 76.366 8.49684 75.7473 7.90022C75.1286 7.3036 74.2895 6.96841 73.4146 6.96841H66.8166C65.9417 6.96841 65.1025 7.3036 64.4839 7.90022C63.8652 8.49684 63.5176 9.30604 63.5176 10.1498V18.3768L46.0594 1.53462C45.7529 1.23835 45.3889 1.0033 44.9881 0.842913C44.5873 0.682531 44.1576 0.599976 43.7237 0.599976C43.2898 0.599976 42.8601 0.682531 42.4593 0.842913C42.0585 1.0033 41.6945 1.23835 41.388 1.53462L1.80016 39.7111C1.494 40.0071 1.25134 40.3584 1.08605 40.7449C0.920763 41.1314 0.836084 41.5455 0.836858 41.9635V86.5028C0.836858 87.3466 1.18443 88.1558 1.80311 88.7524C2.42179 89.349 3.2609 89.6842 4.13585 89.6842H30.5277C31.4027 89.6842 32.2418 89.349 32.8605 88.7524C33.4792 88.1558 33.8267 87.3466 33.8267 86.5028Z" fill="#F59E0B"/>
</svg>
