<svg width="59" height="66" viewBox="0 0 59 66" fill="none" xmlns="http://www.w3.org/2000/svg">
<path d="M18.7883 7.24994C14.8727 8.3201 10.9836 9.48375 7.12456 10.7399C6.77218 10.8531 6.45894 11.0621 6.22053 11.3433C5.98211 11.6244 5.82811 11.9662 5.77606 12.3299C3.4984 29.2782 8.76086 41.6438 15.0388 49.7897C17.6968 53.2731 20.8662 56.3419 24.4413 58.8937C25.8638 59.8885 27.1219 60.6061 28.1127 61.0668C28.6061 61.2992 29.009 61.4541 29.3173 61.5479C29.4522 61.5948 29.5912 61.6289 29.7326 61.6498C29.8722 61.6273 30.0098 61.5932 30.1437 61.5479C30.4562 61.4541 30.8591 61.2992 31.3524 61.0668C32.3391 60.6061 33.6013 59.8845 35.0238 58.8937C38.5989 56.3418 41.7683 53.2731 44.4263 49.7897C50.7043 41.6479 55.9667 29.2782 53.6891 12.3299C53.6375 11.9661 53.4836 11.624 53.2452 11.3428C53.0067 11.0616 52.6932 10.8527 52.3406 10.7399C49.6641 9.87148 45.1458 8.45674 40.6768 7.25402C36.1133 6.02683 31.9157 5.11765 29.7326 5.11765C27.5536 5.11765 23.3518 6.02683 18.7883 7.25402V7.24994ZM17.6947 3.0506C22.1555 1.84787 26.8958 0.767456 29.7326 0.767456C32.5694 0.767456 37.3097 1.84787 41.7704 3.0506C46.334 4.27371 50.9345 5.72105 53.6397 6.59762C54.7708 6.96802 55.7735 7.64731 56.5328 8.55745C57.292 9.46759 57.777 10.5717 57.9319 11.7428C60.3823 29.9957 54.6963 43.5233 47.7976 52.4724C44.8722 56.3007 41.3839 59.6719 37.4495 62.4734C36.089 63.4428 34.6475 64.2953 33.1408 65.0215C31.9897 65.5597 30.7522 66 29.7326 66C28.713 66 27.4796 65.5597 26.3243 65.0215C24.8176 64.2953 23.3761 63.4428 22.0157 62.4734C18.0813 59.6718 14.5931 56.3006 11.6675 52.4724C4.76879 43.5233 -0.917125 29.9957 1.53321 11.7428C1.68815 10.5717 2.1731 9.46759 2.93235 8.55745C3.6916 7.64731 4.69434 6.96802 5.8254 6.59762C9.75247 5.32073 13.7101 4.13804 17.6947 3.0506Z" fill="#F59E0B"/>
</svg>
